<?xml version="1.0" encoding="utf-8"?>
<!-- Generator: Adobe Illustrator 28.1.0, SVG Export Plug-In . SVG Version: 6.00 Build 0)  -->
<svg version="1.2" baseProfile="tiny" id="Layer_1" xmlns="http://www.w3.org/2000/svg" xmlns:xlink="http://www.w3.org/1999/xlink"
	 x="0px" y="0px" viewBox="0 0 337 108" overflow="visible" xml:space="preserve">
<g>
	<circle fill="none" cx="141.7" cy="52.8" r="4.3"/>
	<polygon fill="#FFFFFF" points="208.5,70.8 208.5,35 213.7,35 213.7,65.8 230.5,65.8 230.5,70.8 	"/>
	<polygon fill="#FFFFFF" points="244,70.8 244,55.9 231.5,35 237.8,35 246.8,50.9 255.9,35 261.8,35 249.2,55.9 249.2,70.8 	"/>
	<g>
		<path fill="#FFFFFF" d="M280.8,71.5c-7.8,0-11.8-4.7-13-9.1l0-0.2l4.6-2.3l0.1,0.3c0.3,1.6,1.9,6.6,8.4,6.6c4.2,0,6.9-2.2,6.9-5.5
			c0-2.6-2-4.7-5.1-5.4l-5-1.1c-5.4-1.1-8.7-4.8-8.7-9.8c0-5.9,5.2-10.7,11.7-10.7c6.6,0,9.7,3.3,11.1,6.2l0.1,0.2l-4.3,2.2
			l-0.1-0.2c-0.7-1.4-2.6-3.8-6.7-3.8c-3.7,0-6.6,2.5-6.6,5.7c0,2.6,1.6,4.5,4.5,5.2l5.1,1.1c5.8,1.2,9.3,5,9.3,10.1
			C293,66.2,288.8,71.5,280.8,71.5z"/>
	</g>
	<path fill="#FFFFFF" d="M44.4,70.7V35h11.4c10.4,0,18,7.2,18,17.9c0,10.6-7.6,17.8-18.1,17.8H44.4z M55.5,65.9
		c7.3,0,12.7-5.1,12.7-13c0-8-5.4-13.2-12.7-13.2h-5.9v26.2H55.5z"/>
	<path fill="#FFFFFF" d="M108.3,70.7l-3.5-9.2H88.7l-3.4,9.2h-5.6L93.6,35h6.6l13.9,35.7H108.3z M103,56.7l-6.2-16.8l-6.2,16.8H103z
		"/>
	<g>
		<path fill="#FFFFFF" d="M185.3,71.5c-7.8,0-11.8-4.7-13-9.1l0-0.2l4.6-2.3l0.1,0.3c0.3,1.6,1.9,6.6,8.4,6.6c4.2,0,6.9-2.2,6.9-5.5
			c0-2.6-2-4.7-5.1-5.4l-5-1.1c-5.4-1.1-8.7-4.8-8.7-9.8c0-5.9,5.2-10.7,11.7-10.7c6.6,0,9.7,3.3,11.1,6.2l0.1,0.2l-4.3,2.2
			l-0.1-0.2c-0.7-1.4-2.6-3.8-6.7-3.8c-3.7,0-6.6,2.5-6.6,5.7c0,2.6,1.6,4.5,4.5,5.2l5.1,1.1c5.8,1.2,9.3,5,9.3,10.1
			C197.4,66.2,193.3,71.5,185.3,71.5z"/>
	</g>
	<radialGradient id="SVGID_1_" cx="141.6788" cy="52.898" r="37.2214" gradientUnits="userSpaceOnUse">
		<stop  offset="0.5153" style="stop-color:#FFFFFF"/>
		<stop  offset="1" style="stop-color:#FFFFFF;stop-opacity:0"/>
	</radialGradient>
	<path fill="url(#SVGID_1_)" d="M178.3,52h-18.1h-0.3h-0.1h-7.2H144v5h8.3c-1.4,5-5.6,7.8-10.6,7.8c-6.5,0-11.9-5.3-11.9-12.1
		c0-6.8,5.3-12.1,11.9-12.1c3.4,0,6.2,1.2,8,3.4l6.1-3.1c0,0,0,0,0,0l16.7-8.5c-6.7-10.5-18.1-17.4-30.8-17.4
		C121.4,15.1,105,32,105,52.9c0,20.9,16.4,37.8,36.6,37.8c20.2,0,36.6-16.7,36.6-37.6C178.3,52.7,178.3,52,178.3,52z"/>
</g>
</svg>
